<?xml version="1.0" encoding="UTF-8"?>
<svg xmlns="http://www.w3.org/2000/svg" xmlns:xlink="http://www.w3.org/1999/xlink" viewBox="0 0 700 700" width="700px" height="700px">
<g id="surface2156070">
<path style=" stroke:none;fill-rule:nonzero;fill:rgb(16.862746%,21.568628%,23.137255%);fill-opacity:1;" d="M 350 58.332031 C 188.917969 58.332031 58.332031 188.917969 58.332031 350 C 58.332031 511.082031 188.917969 641.667969 350 641.667969 C 511.082031 641.667969 641.667969 511.082031 641.667969 350 C 641.667969 188.917969 511.082031 58.332031 350 58.332031 Z M 350 58.332031 "/>
<path style=" stroke:none;fill-rule:nonzero;fill:rgb(100%,100%,100%);fill-opacity:1;" d="M 472.5 320.832031 L 227.5 320.832031 C 214.375 320.832031 204.167969 331.042969 204.167969 344.167969 L 204.167969 472.5 C 204.167969 485.625 214.375 495.832031 227.5 495.832031 L 472.5 495.832031 C 485.625 495.832031 495.832031 485.625 495.832031 472.5 L 495.832031 344.167969 C 495.832031 331.042969 485.625 320.832031 472.5 320.832031 Z M 247.917969 466.667969 C 247.917969 473.957031 240.625 481.25 233.332031 481.25 C 226.042969 481.25 218.75 473.957031 218.75 466.667969 L 218.75 350 C 218.75 342.707031 226.042969 335.417969 233.332031 335.417969 C 240.625 335.417969 247.917969 342.707031 247.917969 350 Z M 364.582031 403.957031 L 364.582031 466.667969 L 335.417969 466.667969 L 335.417969 403.957031 C 326.667969 399.582031 320.832031 389.375 320.832031 379.167969 C 320.832031 363.125 333.957031 350 350 350 C 366.042969 350 379.167969 363.125 379.167969 379.167969 C 379.167969 389.375 373.332031 399.582031 364.582031 403.957031 Z M 437.5 291.667969 L 408.332031 291.667969 L 408.332031 247.917969 C 408.332031 215.832031 382.082031 189.582031 350 189.582031 C 317.917969 189.582031 291.667969 215.832031 291.667969 247.917969 L 291.667969 291.667969 L 262.5 291.667969 L 262.5 247.917969 C 262.5 199.792969 301.875 160.417969 350 160.417969 C 398.125 160.417969 437.5 199.792969 437.5 247.917969 Z M 437.5 291.667969 "/>
</g>
</svg>
